<svg xmlns="http://www.w3.org/2000/svg" viewBox="0 0 370 369" role="img" aria-label="Forme Deploiement"><title>Forme Deploiement</title><path fill="currentColor" fill-rule="evenodd" d="M154.33 368.5 C153.88 368.27 152.6 367.8 151.5 367.47 C149.26 366.79 147.05 365.55 144.33 363.46 C140.6 360.59 6.54 226.01 4.92 223.5 C0.57 216.79 -0.48 206.63 2.52 200.12 C2.78 199.54 3.0 198.98 3.0 198.88 C3.0 198.78 3.55 197.76 4.22 196.6 C7.49 190.98 12.8 186.85 19.5 184.72 C21.0 184.25 29.32 184.19 102.49 184.09 C147.21 184.04 183.92 183.88 184.06 183.74 C184.2 183.6 152.82 151.9 114.33 113.28 C39.3 38.01 42.03 40.8 40.39 37.52 C32.37 21.39 43.54 1.05 60.72 0.52 C61.02 0.51 61.39 0.39 61.53 0.25 C61.66 0.11 130.88 -0.0 215.35 -0.0 L368.92 -0.0L369.3 0.92 C369.81 2.17 369.6 307.73 369.08 311.17 C367.94 318.72 362.34 326.26 355.5 329.47 C354.77 329.82 353.93 330.21 353.64 330.35 C346.93 333.55 336.63 332.48 329.67 327.85 C328.84 327.31 296.32 295.13 257.4 256.35 C218.49 217.56 186.46 185.83 186.24 185.83 C185.92 185.83 185.82 203.27 185.77 265.5 C185.69 355.39 185.91 348.52 182.93 355.02 C180.3 360.78 171.37 368.0 166.89 368.0 C166.47 368.0 165.84 368.22 165.48 368.49 C164.61 369.15 155.59 369.16 154.33 368.5 Z"/></svg>
